# xmcd
#
# Track frame offsets: 
#        150
#        24219
#        49431
#        69112
#        97413
#        113778
#        138057
#        161980
#        182927
#        201493
#        217397
#        238656
#
# Disc length: 3421 seconds
#
# Revision: 0
# Processed by: cddbd v1.5.1PL2 Copyright (c) Steve Scherf et al.
# Submitted via: ExactAudioCopy v0.95b4
#
DISCID=ba0d5b0c
DTITLE=Acres Home Players - The Waitin Game
DYEAR=2000
DGENRE=Rap
TTITLE0=Dope House
TTITLE1=Laws On My Tail
TTITLE2=Game
TTITLE3=Weed
TTITLE4=Now U Know
TTITLE5=T.Y.P. (Throw Your Pussy)
TTITLE6=Confused
TTITLE7=Waitin Game
TTITLE8=Mayors Decision
TTITLE9=Set It Straight
TTITLE10=Keep Your Hands 2 Yourself
TTITLE11=Shout Outs
EXTD=
EXTT0=
EXTT1=
EXTT2=
EXTT3=
EXTT4=
EXTT5=
EXTT6=
EXTT7=
EXTT8=
EXTT9=
EXTT10=
EXTT11=
PLAYORDER=
